Coordinates
version=1
nRows=31
nColumns=34
inDegrees=no

Units are S.I. units (second, meters, Newtons, ...)
If the header above contains a line with 'inDegrees', this indicates whether rotational values are in degrees (yes) or radians (no).

endheader
time	pelvis_tilt	pelvis_list	pelvis_rotation	pelvis_tx	pelvis_ty	pelvis_tz	hip_flexion_r	hip_adduction_r	hip_rotation_r	knee_angle_r	ankle_angle_r	subtalar_angle_r	mtp_angle_r	hip_flexion_l	hip_adduction_l	hip_rotation_l	knee_angle_l	ankle_angle_l	subtalar_angle_l	mtp_angle_l	lumbar_extension	lumbar_bending	lumbar_rotation	arm_flex_r	arm_add_r	arm_rot_r	elbow_flex_r	pro_sup_r	arm_flex_l	arm_add_l	arm_rot_l	elbow_flex_l	pro_sup_l
0	0.0967039	-0.03688	0.13095	-0.0308677	0.918968	-0.204135	0.279132	0.0523608	-0.0772183	0.0347706	-0.145492	-0.0513157	0.00351648	-0.366665	-0.0422897	-0.244885	0.161763	0.369763	0.125051	-0.0199065	-0.158997	-0.00827526	-0.0871704	-0.0297017	-0.226944	-0.100707	0.46401	1.45994	0.388243	-0.216198	-0.0170316	0.710488	1.8626
0.01	0.113671	-0.0605758	0.142023	-0.0168047	0.925933	-0.203763	0.250384	0.0825716	-0.0841723	0.0308317	-0.180666	-0.0901778	0.0035385	-0.383863	-0.083406	-0.260628	0.193345	0.371999	0.13725	-0.019963	-0.173543	0.0231534	-0.0927486	-0.0301061	-0.228367	-0.106118	0.457145	1.4622	0.380378	-0.210373	-0.0235737	0.711858	1.86098
0.02	0.125853	-0.0818358	0.151279	-0.00296365	0.931846	-0.203282	0.229432	0.109183	-0.0907387	0.0324621	-0.208256	-0.124407	0.00356051	-0.391852	-0.121167	-0.271137	0.230445	0.365895	0.142408	-0.0200194	-0.183158	0.0509498	-0.0971267	-0.0307429	-0.229472	-0.110879	0.450557	1.46453	0.372252	-0.204915	-0.0280274	0.711231	1.85956
0.03	0.13342	-0.100831	0.15878	0.0106629	0.936765	-0.202678	0.215991	0.132387	-0.0969494	0.0394549	-0.228349	-0.154069	0.00358253	-0.390798	-0.155788	-0.276537	0.273041	0.351454	0.140744	-0.0200759	-0.188	0.0752891	-0.100332	-0.0316035	-0.230273	-0.114984	0.444255	1.46694	0.363877	-0.199817	-0.0303941	0.708607	1.85836
0.04	0.136717	-0.117903	0.164652	0.0240792	0.940766	-0.201948	0.20943	0.152595	-0.102858	0.0513136	-0.24116	-0.179316	0.00360454	-0.381053	-0.187708	-0.277094	0.321054	0.328698	0.132774	-0.0201323	-0.188417	0.0965457	-0.102416	-0.0326622	-0.230801	-0.118414	0.438262	1.46942	0.355281	-0.195065	-0.0306793	0.703996	1.85743
0.05	0.136229	-0.133481	0.169057	0.0372855	0.943932	-0.20109	0.208821	0.170371	-0.108533	0.0672564	-0.247057	-0.200359	0.00362656	-0.363125	-0.217494	-0.273186	0.374285	0.29773	0.119281	-0.0201888	-0.184906	0.115235	-0.103446	-0.0338694	-0.231111	-0.121139	0.432615	1.47196	0.346517	-0.190638	-0.0289015	0.697431	1.85687
0.06	0.13254	-0.148011	0.172169	0.0502797	0.946355	-0.200109	0.21303	0.18633	-0.114068	0.0862737	-0.246575	-0.217418	0.00364859	-0.337661	-0.245705	-0.265235	0.432348	0.258852	0.10126	-0.0202452	-0.178073	0.131919	-0.103494	-0.035148	-0.231274	-0.123116	0.427355	1.4745	0.337662	-0.186509	-0.0251051	0.688988	1.85682
0.07	0.126288	-0.161878	0.174158	0.0630572	0.948134	-0.199017	0.220803	0.201036	-0.119579	0.10722	-0.240403	-0.23068	0.00367062	-0.305453	-0.272771	-0.253665	0.494623	0.212735	0.0798375	-0.0203017	-0.168598	0.147123	-0.102629	-0.0363935	-0.231376	-0.124291	0.422523	1.47699	0.328806	-0.182649	-0.0193745	0.678798	1.85747
0.08	0.11812	-0.175357	0.175175	0.0756131	0.949368	-0.197831	0.230866	0.214936	-0.125199	0.128924	-0.229368	-0.240287	0.00369265	-0.267413	-0.298909	-0.238873	0.560256	0.160582	0.0561994	-0.0203581	-0.157191	0.161267	-0.100909	-0.0374768	-0.231506	-0.124598	0.418153	1.47933	0.320044	-0.179023	-0.0118438	0.667051	1.85898
0.09	0.108655	-0.188573	0.175348	0.0879434	0.95016	-0.196575	0.242014	0.228315	-0.131053	0.150304	-0.214382	-0.246343	0.00371469	-0.224554	-0.324099	-0.221226	0.628208	0.104237	0.0315146	-0.0204145	-0.14456	0.174628	-0.0983793	-0.0382499	-0.231749	-0.123958	0.414259	1.4814	0.311458	-0.175598	-0.00270291	0.653988	1.86153
0.1	0.0984666	-0.201505	0.174784	0.100047	0.950608	-0.195275	0.253173	0.241294	-0.137234	0.17045	-0.196388	-0.248943	0.00373673	-0.17796	-0.348093	-0.201081	0.697323	0.0461793	0.00685403	-0.020471	-0.131381	0.187328	-0.0950761	-0.0385544	-0.232173	-0.12227	0.410838	1.48305	0.303107	-0.172344	0.00779885	0.639885	1.86526
0.11	0.0880525	-0.214	0.173579	0.111924	0.950809	-0.193961	0.263447	0.25384	-0.143773	0.188695	-0.17629	-0.248217	0.00375878	-0.128743	-0.370464	-0.178805	0.766413	-0.0106274	-0.0169011	-0.0205274	-0.118279	0.199344	-0.0910339	-0.0382326	-0.232824	-0.119403	0.407866	1.48408	0.29501	-0.169238	0.0193524	0.625037	1.87028
0.12	0.077831	-0.22582	0.171823	0.123579	0.950852	-0.19266	0.27214	0.265806	-0.150621	0.204625	-0.154906	-0.244364	0.00378083	-0.0779894	-0.390684	-0.154804	0.83434	-0.0630367	-0.0391511	-0.0205838	-0.105801	0.210536	-0.0862953	-0.0371396	-0.233719	-0.115205	0.40531	1.48433	0.287143	-0.166265	0.0315904	0.609728	1.87664
0.13	0.0681332	-0.236677	0.169604	0.135018	0.950823	-0.1914	0.278765	0.276979	-0.157635	0.218072	-0.132932	-0.23769	0.00380288	-0.0267128	-0.408202	-0.129544	0.90007	-0.108125	-0.0596483	-0.0206402	-0.0943908	0.220687	-0.0809176	-0.0351581	-0.234847	-0.109508	0.403136	1.48364	0.279432	-0.163421	0.0440929	0.594221	1.88434
0.14	0.0592022	-0.246278	0.167007	0.146247	0.950794	-0.1902	0.283022	0.287129	-0.164572	0.229053	-0.11093	-0.22862	0.00382493	0.0241903	-0.422527	-0.103561	0.962709	-0.143622	-0.0785209	-0.0206966	-0.084374	0.229548	-0.0749752	-0.0322113	-0.236174	-0.102154	0.40132	1.48195	0.271759	-0.160706	0.0563989	0.578743	1.89331
0.15	0.051198	-0.254362	0.164108	0.157278	0.950825	-0.189074	0.284765	0.296053	-0.171105	0.237706	-0.0893363	-0.217691	0.00384699	0.0739617	-0.433294	-0.0774607	1.0215	-0.168262	-0.0962272	-0.020753	-0.0759549	0.236879	-0.0685566	-0.0282732	-0.237643	-0.0930258	0.399857	1.47932	0.263967	-0.158128	0.0680242	0.563485	1.90334
0.16	0.0442082	-0.260728	0.160966	0.168127	0.950974	-0.188033	0.283958	0.303612	-0.176841	0.244211	-0.0684794	-0.205519	0.00386906	0.121981	-0.440311	-0.0518909	1.07582	-0.181967	-0.113437	-0.0208094	-0.069224	0.242483	-0.0617556	-0.0233725	-0.239183	-0.0820757	0.398765	1.47601	0.255875	-0.155694	0.0784893	0.548603	1.91409
0.17	0.0382613	-0.26525	0.157622	0.178814	0.951277	-0.187078	0.280626	0.309742	-0.18136	0.248729	-0.0485991	-0.192741	0.00389113	0.167758	-0.443573	-0.0275135	1.12514	-0.185805	-0.13086	-0.0208658	-0.064172	0.246232	-0.05466	-0.0175919	-0.240711	-0.0693564	0.398084	1.47245	0.24729	-0.153411	0.087355	0.534229	1.92508
0.18	0.0333353	-0.267886	0.154087	0.189362	0.951758	-0.186208	0.274825	0.314456	-0.184259	0.251362	-0.0298628	-0.179959	0.00391321	0.210916	-0.443252	-0.0049575	1.16905	-0.181728	-0.149052	-0.0209221	-0.0607091	0.248068	-0.0473402	-0.0110608	-0.242141	-0.0550382	0.397863	1.46926	0.238027	-0.151281	0.0942612	0.52047	1.93567
0.19	0.0293505	-0.268681	0.150349	0.199802	0.952429	-0.185414	0.266621	0.317819	-0.185204	0.252145	-0.0123759	-0.167661	0.0039353	0.251181	-0.439662	0.0152261	1.2072	-0.172166	-0.168251	-0.0209784	-0.0586916	0.247999	-0.039841	-0.00394304	-0.243388	-0.0394154	0.398163	1.46715	0.227926	-0.149306	0.098962	0.507411	1.94512
0.2	0.0261923	-0.267739	0.146374	0.210159	0.953282	-0.184687	0.256095	0.31993	-0.183965	0.251069	0.00381146	-0.156182	0.0039574	0.288377	-0.433216	0.0326049	1.23939	-0.159575	-0.188276	-0.0210347	-0.0579326	0.246094	-0.0321729	0.00357886	-0.244374	-0.0228993	0.399043	1.46683	0.21686	-0.14748	0.101348	0.495108	1.95273
0.21	0.0237445	-0.265191	0.142104	0.220462	0.954305	-0.184016	0.24336	0.320895	-0.180447	0.248102	0.0186971	-0.14568	0.00397952	0.32243	-0.424377	0.046895	1.26547	-0.146038	-0.208519	-0.0210909	-0.0582096	0.242472	-0.0243158	0.011319	-0.245029	-0.0059993	0.400569	1.4689	0.204752	-0.145797	0.101451	0.483591	1.95785
0.22	0.0218812	-0.261192	0.137465	0.230735	0.955481	-0.183392	0.228567	0.320812	-0.174695	0.243237	0.0323166	-0.136143	0.00400165	0.353364	-0.413614	0.0579761	1.28545	-0.133023	-0.228019	-0.021147	-0.0592884	0.23729	-0.0162276	0.0191019	-0.245301	0.0107091	0.402813	1.4737	0.191581	-0.144245	0.0994265	0.472857	1.96004
0.23	0.0204671	-0.255918	0.132391	0.240999	0.956784	-0.182808	0.211921	0.319761	-0.166884	0.236521	0.0447318	-0.127437	0.00402381	0.381301	-0.401373	0.065889	1.29941	-0.121299	-0.24562	-0.021203	-0.0609366	0.23073	-0.00785469	0.0267723	-0.245159	0.0266319	0.405859	1.48127	0.177379	-0.142813	0.0955229	0.462874	1.95908
0.24	0.0193632	-0.249561	0.126829	0.251266	0.958183	-0.182258	0.193684	0.317809	-0.157293	0.228074	0.0560219	-0.119349	0.00404598	0.406445	-0.388061	0.0708184	1.30754	-0.111022	-0.260161	-0.021259	-0.0629326	0.223002	0.000853852	0.0342011	-0.244592	0.0412181	0.409803	1.49132	0.162227	-0.141488	0.0900386	0.453592	1.95502
0.25	0.0184334	-0.242327	0.120753	0.261545	0.959639	-0.181738	0.17417	0.315027	-0.146267	0.218096	0.066278	-0.111653	0.00406817	0.429071	-0.374046	0.0730591	1.31009	-0.101915	-0.270668	-0.0213148	-0.0650719	0.214335	0.0099349	0.0412873	-0.243622	0.054025	0.414744	1.50323	0.146242	-0.140257	0.0832812	0.444948	1.94815
0.26	0.0175518	-0.234435	0.114167	0.271838	0.96111	-0.181245	0.153734	0.311491	-0.134185	0.206858	0.075604	-0.104148	0.00409037	0.44949	-0.35966	0.0729724	1.30733	-0.0934888	-0.276506	-0.0213706	-0.0671723	0.20498	0.0194035	0.0479573	-0.242295	0.0647748	0.420773	1.51617	0.129562	-0.139108	0.0755353	0.436878	1.93896
0.27	0.0166094	-0.22611	0.107104	0.282145	0.962552	-0.180775	0.132748	0.307299	-0.12142	0.194691	0.0841238	-0.0966858	0.00411259	0.468022	-0.345211	0.0709351	1.29958	-0.0852394	-0.277467	-0.0214263	-0.0690799	0.195193	0.0292504	0.0541626	-0.240685	0.0733879	0.427961	1.52924	0.112331	-0.138032	0.0670434	0.429317	1.92809
0.28	0.0155194	-0.217573	0.0996157	0.292457	0.963917	-0.180329	0.111584	0.302564	-0.108329	0.181964	0.0919921	-0.0891673	0.00413483	0.48496	-0.33099	0.0672931	1.28712	-0.0767903	-0.273785	-0.0214819	-0.0706737	0.185232	0.039444	0.0598786	-0.23889	0.0799841	0.436347	1.54157	0.0946932	-0.137021	0.0579986	0.4222	1.91622
0.29	0.0142211	-0.209033	0.0917714	0.302767	0.965163	-0.179911	0.0905915	0.29741	-0.0952418	0.169068	0.099404	-0.0815176	0.00415709	0.500545	-0.317273	0.0623234	1.27019	-0.0679633	-0.26608	-0.0215374	-0.0718724	0.175342	0.0499349	0.0651038	-0.23702	0.0848515	0.445932	1.55244	0.0767815	-0.136062	0.0485464	0.415457	1.90404
0.3	0.0126818	-0.200677	0.0836463	0.313067	0.966259	-0.179522	0.0700785	0.291963	-0.0824728	0.156398	0.106599	-0.07365	0.00417936	0.514947	-0.304317	0.0562147	1.24903	-0.0587871	-0.25524	-0.0215929	-0.0726381	0.165745	0.0606616	0.0698609	-0.23519	0.0883918	0.456671	1.56137	0.0587192	-0.135144	0.0387921	0.408995	1.89223
